<?xml version="1.0" standalone="no"?><!DOCTYPE svg PUBLIC "-//W3C//DTD SVG 1.1//EN" "http://www.w3.org/Graphics/SVG/1.1/DTD/svg11.dtd"><svg t="1502209158165" class="icon" style="" viewBox="0 0 1024 1024" version="1.1" xmlns="http://www.w3.org/2000/svg" p-id="3319" xmlns:xlink="http://www.w3.org/1999/xlink" width="32" height="32"><defs><style type="text/css"></style></defs><path d="M928 835.328c-3.456-85.888-43.328-162.048-103.488-211.136V391.36c0-134.528-89.664-247.68-208.256-274.432v-5.376C616.256 50.24 569.344 0 511.936 0c-57.216 0-104.192 50.24-104.192 111.552v5.376c-118.464 26.752-208.256 139.904-208.256 274.432v232.96C139.328 673.408 99.456 749.568 96 835.392h103.488v0.768h625.024v-0.768H928v-0.064zM489.984 1024h25.856c67.904 0 124.288-54.912 132.416-125.248H375.936C384.128 969.088 440.576 1024 508.352 1024h-18.368z" p-id="3320" fill="#d81e06"></path></svg>