<?xml version="1.0" standalone="no"?><!DOCTYPE svg PUBLIC "-//W3C//DTD SVG 1.1//EN" "http://www.w3.org/Graphics/SVG/1.1/DTD/svg11.dtd"><svg t="1502255912472" class="icon" style="" viewBox="0 0 1024 1024" version="1.1" xmlns="http://www.w3.org/2000/svg" p-id="4890" xmlns:xlink="http://www.w3.org/1999/xlink" width="32" height="32"><defs><style type="text/css"></style></defs><path d="M718.134 491.793v0c-1.777-3.079-3.079-6.39-5.802-9.112-0.594-0.477-1.064-0.827-1.539-1.303-0.709-0.594-0.946-1.539-1.54-2.128l-331.383-319.434c-8.757-8.519-20.121-12.781-31.483-12.781-11.836 0-23.79 4.733-32.666 13.964-17.398 18.107-16.924 46.871 1.183 64.265l298.956 288.071-300.139 283.922c-18.225 17.28-19.057 46.040-1.777 64.265 17.281 18.226 46.040 19.057 64.265 1.777l334.462-316.355c14.676-13.844 17.399-35.149 9.113-52.429-0.35-0.945-1.182-1.777-1.653-2.722v0zM718.134 491.793z" p-id="4891" fill="#d0d0d0"></path></svg>