<?xml version="1.0" standalone="no"?><!DOCTYPE svg PUBLIC "-//W3C//DTD SVG 1.1//EN" "http://www.w3.org/Graphics/SVG/1.1/DTD/svg11.dtd"><svg t="1502357862313" class="icon" style="" viewBox="0 0 1050 1024" version="1.1" xmlns="http://www.w3.org/2000/svg" p-id="3172" xmlns:xlink="http://www.w3.org/1999/xlink" width="32.8125" height="32"><defs><style type="text/css"></style></defs><path d="M524.943297 0C235.045412 0 0 235.045412 0 524.943297c0 231.969572 150.396255 428.695149 359.007901 498.093268 26.241013 4.806512 35.821228-11.406239 35.821228-25.247517 0-12.496111-0.480856-53.890761-0.737176-97.721476C248.11773 931.786656 217.262958 838.1663 217.262958 838.1663c-23.901325-60.619673-58.281009-76.767831-58.281009-76.767831-47.707298-32.552636 3.619238-31.911836 3.619238-31.911836 52.705537 3.652047 80.453712 54.083514 80.453712 54.083514 46.842987 80.22815 122.905425 57.031193 152.766702 43.574395 4.771653-33.834236 18.356611-57.031193 33.321596-70.103512C312.613986 743.776984 190.029474 698.728236 190.029474 497.580628c0-57.352106 20.473814-104.129475 53.987137-140.879607-5.350936-13.328638-23.421494-66.739568 5.189967-138.988991 0 0 44.023467-14.097598 144.37171 53.827194 41.843722-11.694342 86.732526-17.461542 131.363984-17.654294 44.599675 0.192753 89.519237 6.023519 131.428577 17.717862 100.157541-67.988359 144.244575-53.827194 144.244575-53.827194 28.707837 72.314015 10.637279 125.660352 5.254559 138.925423 33.641483 36.750132 53.955354 83.528526 53.955354 140.879607 0 201.660249-122.777265 246.067171-239.722739 259.075922 18.90411 16.276318 35.628476 48.188154 35.628476 97.145268 0 70.168104-0.705393 126.750225-0.705393 144.051823 0 13.969438 9.547406 30.309324 36.141116 25.182924C899.619525 953.510286 1049.886594 756.784709 1049.886594 524.943297 1049.886594 235.045412 814.841183 0 524.943297 0z" p-id="3173"></path></svg>